<svg version="1" xmlns="http://www.w3.org/2000/svg" width="933.333" height="933.333" viewBox="0 0 700.000000 700.000000"><path d="M115.7 23.6c-.1.1-2 .5-4.2.8-32.1 3.9-55.4 26.4-55.6 53.8 0 4.2.5 9.6 1.1 12 5.7 21.6 24.9 36.3 46.8 35.7 11.7-.3 20.6-3.3 29.2-9.8l3.5-2.6-2.3 3c-8.4 11-11.3 18.6-11.8 30.6-.9 22.5 11.8 40.8 33.1 47.6 14.1 4.6 32.5 1.1 45.5-8.6 2.7-2 3.2-2.1 2-.6-.8 1.1-1.8 2.2-2.1 2.5-.9.8-4.5 9.1-6.3 14.4-2 5.8-2.3 18.4-.6 24.8.6 2.3 2.3 6.7 3.6 9.6l2.5 5.3-6 5.9c-9.5 9.4-22.1 20.8-29.1 26.5-14.2 11.4-39.9 29.8-47.5 34.1-1.1.6-7.4 4.4-14 8.3-13.7 8.2-42.7 23-56 28.6-10 4.2-13.3 6.8-17.2 13.5-2.3 3.8-2.7 5.7-2.7 12 0 11.3 2.8 16.3 21.3 37.5 1.4 1.7 4.8 5.7 7.6 9 2.7 3.3 5.2 6.2 5.5 6.5.3.3 2.8 3.2 5.5 6.5 2.8 3.3 6 7.1 7.1 8.5 1.2 1.4 7.5 8.8 14.1 16.5 6.5 7.7 15.2 18 19.3 23 4.1 4.9 8 9.5 8.5 10.1.6.6 2.9 3.3 5.1 6 2.3 2.7 11 13 19.3 22.9 8.3 9.9 16 18.9 16.9 20 1 1.1 6.7 7.8 12.7 15 6 7.1 11.5 13.7 12.2 14.5.8.8 2.3 2.6 3.5 4 11.5 13.8 16.4 19.6 16.8 20 .3.3 5.4 6.3 11.4 13.5 13.7 16.4 14.5 17.1 21.2 19.1 5.4 1.6 18.1 2 23.4.9 1.4-.3 4.1-.8 6-1.1 6.1-1 25-9.4 47-20.9 3-1.6 5.7-2.9 6-3 .3 0 3.9-2 8-4.4 48.7-28.2 86-57.8 118-93.6 3.2-3.6 5.4-5.1 7.5-5.3 6.3-.6 18.1-5.4 21-8.6 4-4.2 5.2-4.3 1.9-.1-7.5 9.3-11.4 20.2-11.4 31.8 0 27.3 20.5 48 47.5 47.9 12.4 0 21.3-3.1 31.5-11.1 4.1-3.2 4.3-3.2 1.8-.5-5.9 6.5-10.1 19.3-10.1 30.9.1 17 10.1 34.3 24.2 41.4 14.8 7.6 33.4 7.5 46.9-.1 4.2-2.4 12.1-8.5 13.9-10.8 3.4-4 8.2-12.1 10.3-17 8.6-20.5 9.5-41.2 2.9-66.8-11.5-45-46.4-89.8-90.6-116.4-5-3-8.8-5.9-8.5-6.5.4-.5 4.3-3.2 8.7-6.1 4.4-2.8 8.5-5.5 9-6 .6-.5 4.2-2.6 8-4.7 3.9-2.1 8.1-4.6 9.5-5.5 3-2.1 21.6-11.5 32.2-16.4 16.6-7.6 54.7-21.6 58.9-21.6 2.7 0 8.8-6.6 11.4-12.2 3-6.4 3.1-11.5.5-19.9-1.7-5.6-3.8-8.6-16.6-23.9-8-9.6-16-19.1-17.8-21.1-1.7-1.9-4.9-5.7-7.1-8.4-2.2-2.7-4.4-5.3-5-5.9-.5-.6-3.2-3.8-5.9-7.1s-5.4-6.5-6-7c-.6-.6-6.7-7.7-13.6-16-13.1-15.8-14.1-16.9-21.1-25.1-2.4-2.8-5.3-6.2-6.4-7.5-2.2-2.7-29.5-35-32.9-38.9-1.1-1.4-4.3-5.2-7.1-8.5-2.7-3.3-5.2-6.2-5.5-6.5-.3-.3-2.7-3.2-5.5-6.5-2.7-3.3-6-7.1-7.1-8.5-4.9-5.7-22-26-28.2-33.5-13.2-15.7-14-16.3-20.9-18.5-6.3-1.9-17.4-2.2-25.8-.5-1.6.3-4.3.8-6 1.1-8.7 1.8-41.9 13.4-53.7 18.8-3.1 1.4-6 2.6-6.3 2.6-1.9 0-34.7 17.2-46.9 24.6-14 8.5-32.5 21.1-35.9 24.6-2.5 2.5-3.1 2.3-4.6-2-4.2-12-17-33.7-28.2-47.7-7.4-9.3-23-25.2-30.9-31.6-3-2.4-5.7-4.6-6-5-1-1.2-19.6-13.6-23-15.4-29.9-15.2-47.5-20.5-70.3-21-5.9-.1-10.8 0-11 .1z"/></svg>